<svg width="36" height="36" viewBox="0 0 36 36" fill="none" xmlns="http://www.w3.org/2000/svg">
<path d="M27.5358 19.0927C27.5848 24.3802 32.1748 26.1399 32.2254 26.1624C32.1866 26.2862 31.4922 28.6701 29.8075 31.1319C28.3512 33.2604 26.8395 35.381 24.4587 35.4254C22.1192 35.4682 21.3669 34.0377 18.6919 34.0377C16.0178 34.0377 15.1822 35.381 12.9674 35.4682C10.669 35.5554 8.91878 33.1661 7.45037 31.0458C4.45 26.7078 2.15697 18.7875 5.23581 13.4412C6.76525 10.7862 9.499 9.1052 12.4659 9.06188C14.7227 9.01885 16.8528 10.5801 18.2324 10.5801C19.6111 10.5801 22.1997 8.70245 24.9211 8.97807C26.0604 9.0256 29.2582 9.4382 31.3116 12.4442C31.1465 12.5469 27.4962 14.672 27.5358 19.0927ZM23.1391 6.10848C24.3591 4.63163 25.1804 2.57513 24.9565 0.529602C23.1976 0.600196 21.0707 1.70157 19.8093 3.17785C18.6787 4.48482 17.6887 6.57732 17.9556 8.58235C19.9162 8.73423 21.9187 7.58616 23.1391 6.10848Z" fill="black"/>
</svg>
