<svg width="40" height="40" viewBox="0 0 40 40" fill="none" xmlns="http://www.w3.org/2000/svg">
<path fill-rule="evenodd" clip-rule="evenodd" d="M7.30225 18.2222C7.30225 10.7716 13.7751 7.34781 20.1138 7.33219C26.4526 7.31656 32.7576 11.1145 32.7576 18.1591C32.7576 25.2036 32.7582 29.1603 32.7582 29.1603L32.1013 29.6944L30.6316 29.7014L30.1713 29.1208C30.1713 29.1208 30.0955 23.913 30.0955 18.127C30.0955 12.3411 25.7272 9.93203 20.0093 9.92687C14.2913 9.92172 9.881 12.2987 9.881 18.1477V29.277L9.26131 29.8072H8.04522L7.30225 29.277V18.2222Z" fill="#2C3E50"/>
<path fill-rule="evenodd" clip-rule="evenodd" d="M23.0895 22.6437C23.9327 22.6437 23.7095 22.6042 25.4988 22.6042C27.2885 22.6042 28.6712 23.9594 28.6712 25.6423V29.3684C28.6712 31.2234 27.2418 32.6122 25.4899 32.6122C23.7377 32.6122 23.9513 32.5911 23.0785 32.6016C22.2057 32.612 21.4615 31.8969 21.4615 30.9594C21.4615 30.0219 21.489 25.0553 21.489 24.1489C21.489 23.2427 22.246 22.6439 23.0895 22.6439V22.6437ZM23.9041 25.0937L23.9209 30.1936C23.9209 30.1936 25.1452 30.1936 25.5027 30.1869C25.8602 30.1802 26.3032 29.7825 26.3032 29.3678C26.3032 28.9531 26.3863 26.435 26.3863 26.0134C26.3863 25.5919 26.0132 25.0937 25.5295 25.0772C25.0455 25.0605 23.9041 25.0937 23.9041 25.0937ZM14.6224 22.6356C16.3768 22.6281 16.2063 22.6356 17.0196 22.6356C17.8329 22.6356 18.6295 23.3208 18.6423 24.1698C18.6551 25.0187 18.6423 30.2277 18.6295 31.0456C18.6168 31.8636 17.9627 32.5902 17.0196 32.5902C16.0766 32.5902 16.253 32.5595 14.5898 32.5748C12.9265 32.5902 11.4395 31.0855 11.4395 29.3748C11.4395 27.6642 11.5427 27.3036 11.491 25.6605C11.4395 24.0173 12.868 22.6433 14.6224 22.6356ZM13.8016 25.9356C13.8016 26.3742 13.8162 28.9117 13.8162 29.3912C13.8162 29.8708 14.1693 30.1597 14.6568 30.1597C15.1443 30.1597 16.2313 30.1527 16.2313 30.1527V25.0511C16.2313 25.0511 15.1037 25.0317 14.6745 25.0317C14.2452 25.0317 13.8016 25.4972 13.8016 25.9356Z" fill="#2C3E50"/>
</svg>
