<svg width="40" height="40" viewBox="0 0 40 40" fill="none" xmlns="http://www.w3.org/2000/svg">
<path fill-rule="evenodd" clip-rule="evenodd" d="M8.69037 27.8298L20.5099 13.0834C20.5099 13.0834 20.5146 10.6163 22.5394 8.88594C25.0077 6.77688 28.8872 7.12953 30.9212 9.38609C32.9549 11.6428 33.5063 15.3267 30.7258 17.9689C28.9949 19.6136 27.0458 19.5978 27.0458 19.5978L12.2474 31.4175L10.7874 29.9894L8.08959 32.5031C8.08959 32.5031 7.86631 32.6888 7.64522 32.4128C7.42412 32.137 7.53428 31.9 7.53428 31.9L10.1966 29.3683L8.69037 27.8298ZM11.4605 27.6511L12.3491 28.508L24.0932 19.2658C24.0932 19.2658 22.8416 18.5758 22.0912 17.7863C21.3407 16.9967 20.9068 15.9142 20.9068 15.9142L11.4605 27.6511ZM23.3085 11.1405C23.3085 11.1405 21.2305 14.0061 23.6832 16.3481C26.136 18.6903 28.9276 16.7231 28.9276 16.7231C28.9276 16.7231 26.4165 16.1408 25.0541 14.7872C23.6916 13.4338 23.3085 11.1403 23.3085 11.1403V11.1405ZM24.1512 10.4353C24.1512 10.4353 24.7296 12.6398 26.1201 14.0405C27.5105 15.4411 29.6941 16.0189 29.6941 16.0189C29.6941 16.0189 31.7074 12.9689 29.183 10.6567C26.6585 8.34453 24.1512 10.4353 24.1512 10.4353Z" fill="#2C3E50"/>
</svg>
