<svg width="38" height="38" viewBox="0 0 38 38" fill="none" xmlns="http://www.w3.org/2000/svg">
<path d="M19 5.7C15.4727 5.7 12.0898 7.10125 9.59553 9.59548C7.10129 12.0897 5.70005 15.4726 5.70005 19V20.9H8.55005C8.802 20.9 9.04364 21.0001 9.2218 21.1782C9.39996 21.3564 9.50005 21.598 9.50005 21.85V33.25C9.50005 33.502 9.39996 33.7436 9.2218 33.9218C9.04364 34.0999 8.802 34.2 8.55005 34.2H7.60005C6.59223 34.2 5.62568 33.7996 4.91304 33.087C4.2004 32.3744 3.80005 31.4078 3.80005 30.4V19C3.80005 14.9687 5.40147 11.1025 8.25203 8.25198C11.1026 5.40142 14.9688 3.8 19 3.8C23.0313 3.8 26.8975 5.40142 29.7481 8.25198C32.5986 11.1025 34.2 14.9687 34.2 19V30.4C34.2 31.4078 33.7997 32.3744 33.0871 33.087C32.3744 33.7996 31.4079 34.2 30.4 34.2H29.45C29.1981 34.2 28.9565 34.0999 28.7783 33.9218C28.6001 33.7436 28.5 33.502 28.5 33.25V21.85C28.5 21.598 28.6001 21.3564 28.7783 21.1782C28.9565 21.0001 29.1981 20.9 29.45 20.9H32.3V19C32.3 15.4726 30.8988 12.0897 28.4046 9.59548C25.9103 7.10125 22.5274 5.7 19 5.7ZM5.70005 30.4C5.70005 30.9039 5.90023 31.3872 6.25655 31.7435C6.61286 32.0998 7.09614 32.3 7.60005 32.3V22.8H5.70005V30.4ZM32.3 30.4V22.8H30.4V32.3C30.904 32.3 31.3872 32.0998 31.7436 31.7435C32.0999 31.3872 32.3 30.9039 32.3 30.4ZM19.95 19.95C19.95 19.698 19.85 19.4564 19.6718 19.2782C19.4936 19.1001 19.252 19 19 19C18.7481 19 18.5065 19.1001 18.3283 19.2782C18.1501 19.4564 18.05 19.698 18.05 19.95V33.25C18.05 33.502 18.1501 33.7436 18.3283 33.9218C18.5065 34.0999 18.7481 34.2 19 34.2C19.252 34.2 19.4936 34.0999 19.6718 33.9218C19.85 33.7436 19.95 33.502 19.95 33.25V19.95ZM14.25 22.8C14.502 22.8 14.7436 22.9001 14.9218 23.0782C15.1 23.2564 15.2 23.498 15.2 23.75V31.35C15.2 31.602 15.1 31.8436 14.9218 32.0218C14.7436 32.1999 14.502 32.3 14.25 32.3C13.9981 32.3 13.7565 32.1999 13.5783 32.0218C13.4001 31.8436 13.3 31.602 13.3 31.35V23.75C13.3 23.498 13.4001 23.2564 13.5783 23.0782C13.7565 22.9001 13.9981 22.8 14.25 22.8ZM24.7 23.75C24.7 23.498 24.6 23.2564 24.4218 23.0782C24.2436 22.9001 24.002 22.8 23.75 22.8C23.4981 22.8 23.2565 22.9001 23.0783 23.0782C22.9001 23.2564 22.8 23.498 22.8 23.75V31.35C22.8 31.602 22.9001 31.8436 23.0783 32.0218C23.2565 32.1999 23.4981 32.3 23.75 32.3C24.002 32.3 24.2436 32.1999 24.4218 32.0218C24.6 31.8436 24.7 31.602 24.7 31.35V23.75Z" fill="#2C3E50"/>
</svg>
