<svg width="41" height="37" viewBox="0 0 41 37" fill="none" xmlns="http://www.w3.org/2000/svg">
<path d="M1 1H4.28659L5.69512 6.83333M5.69512 6.83333L10.3902 26.2778H34.8049L39.5 6.83333H5.69512Z" stroke="#E6E6E6" stroke-width="2" stroke-linecap="round" stroke-linejoin="round"/>
<path d="M10.3903 36C11.9461 36 13.2074 34.6942 13.2074 33.0833C13.2074 31.4725 11.9461 30.1667 10.3903 30.1667C8.83449 30.1667 7.57324 31.4725 7.57324 33.0833C7.57324 34.6942 8.83449 36 10.3903 36Z" stroke="#E6E6E6" stroke-width="2" stroke-linecap="round" stroke-linejoin="round"/>
<path d="M34.8049 36C36.3607 36 37.6219 34.6942 37.6219 33.0833C37.6219 31.4725 36.3607 30.1667 34.8049 30.1667C33.249 30.1667 31.9878 31.4725 31.9878 33.0833C31.9878 34.6942 33.249 36 34.8049 36Z" stroke="#E6E6E6" stroke-width="2" stroke-linecap="round" stroke-linejoin="round"/>
</svg>
