<svg width="36" height="36" viewBox="0 0 36 36" fill="none" xmlns="http://www.w3.org/2000/svg">
<path d="M34.0137 0H1.98631C0.889302 0 0 0.889302 0 1.98631V34.0137C0 35.1107 0.889302 36 1.98631 36H34.0137C35.1107 36 36 35.1107 36 34.0137V1.98631C36 0.889302 35.1107 0 34.0137 0Z" fill="#3D5A98"/>
<path d="M24.8365 35.997V22.0563H29.5148L30.2144 16.6236H24.8365V13.1559C24.8365 11.5833 25.2745 10.5095 27.5285 10.5095H30.4061V5.64259C29.0126 5.49763 27.6123 5.42858 26.2114 5.43575C22.0684 5.43575 19.2152 7.96046 19.2152 12.6175V16.6236H14.5369V22.0563H19.2152V35.997H24.8365Z" fill="white"/>
</svg>
