<svg width="38" height="38" viewBox="0 0 38 38" fill="none" xmlns="http://www.w3.org/2000/svg">
<path d="M30.0833 3.16667H7.91659C7.04213 3.16667 6.33325 3.87555 6.33325 4.75V33.25C6.33325 34.1245 7.04213 34.8333 7.91659 34.8333H30.0833C30.9577 34.8333 31.6666 34.1245 31.6666 33.25V4.75C31.6666 3.87555 30.9577 3.16667 30.0833 3.16667Z" stroke="#2C3E50" stroke-width="2" stroke-linecap="round" stroke-linejoin="round"/>
<path d="M18.9998 15.8333C21.186 15.8333 22.9582 14.0611 22.9582 11.875C22.9582 9.68888 21.186 7.91667 18.9998 7.91667C16.8137 7.91667 15.0415 9.68888 15.0415 11.875C15.0415 14.0611 16.8137 15.8333 18.9998 15.8333Z" stroke="#2C3E50" stroke-width="2"/>
<path d="M11.0833 9.5C11.9578 9.5 12.6667 8.79112 12.6667 7.91667C12.6667 7.04222 11.9578 6.33334 11.0833 6.33334C10.2089 6.33334 9.5 7.04222 9.5 7.91667C9.5 8.79112 10.2089 9.5 11.0833 9.5Z" fill="#2C3E50"/>
<path d="M11.0833 31.6667C11.9578 31.6667 12.6667 30.9578 12.6667 30.0833C12.6667 29.2089 11.9578 28.5 11.0833 28.5C10.2089 28.5 9.5 29.2089 9.5 30.0833C9.5 30.9578 10.2089 31.6667 11.0833 31.6667Z" fill="#2C3E50"/>
<path d="M26.9166 9.5C27.791 9.5 28.4999 8.79112 28.4999 7.91667C28.4999 7.04222 27.791 6.33334 26.9166 6.33334C26.0421 6.33334 25.3333 7.04222 25.3333 7.91667C25.3333 8.79112 26.0421 9.5 26.9166 9.5Z" fill="#2C3E50"/>
<path d="M26.9166 31.6667C27.791 31.6667 28.4999 30.9578 28.4999 30.0833C28.4999 29.2089 27.791 28.5 26.9166 28.5C26.0421 28.5 25.3333 29.2089 25.3333 30.0833C25.3333 30.9578 26.0421 31.6667 26.9166 31.6667Z" fill="#2C3E50"/>
<path d="M19 30.0833C21.6234 30.0833 23.75 27.9567 23.75 25.3333C23.75 22.71 21.6234 20.5833 19 20.5833C16.3766 20.5833 14.25 22.71 14.25 25.3333C14.25 27.9567 16.3766 30.0833 19 30.0833Z" stroke="#2C3E50" stroke-width="2"/>
</svg>
