<svg width="24" height="27" viewBox="0 0 24 27" fill="none" xmlns="http://www.w3.org/2000/svg">
<g clip-path="url(#clip0_11_38)">
<path d="M17.7862 9.72196C19.5373 10.9644 21.6825 11.6955 23.9993 11.6955V7.27026C23.5608 7.27043 23.1235 7.225 22.6945 7.1347V10.618C20.3779 10.618 18.2329 9.88703 16.4815 8.64466V17.6753C16.4815 22.193 12.7919 25.8549 8.24088 25.8549C6.54279 25.8549 4.96441 25.3454 3.65332 24.4714C5.14976 25.9902 7.23663 26.9323 9.54532 26.9323C14.0967 26.9323 17.7864 23.2704 17.7864 18.7525V9.72196H17.7862ZM19.3959 5.25746C18.501 4.28704 17.9134 3.03294 17.7862 1.64644V1.0773H16.5498C16.861 2.83947 17.9227 4.34495 19.3959 5.25746ZM6.53182 21.0048C6.03179 20.3542 5.76152 19.5581 5.76279 18.7396C5.76279 16.6734 7.45038 14.9981 9.53248 14.9981C9.92044 14.9979 10.3061 15.057 10.6759 15.1734V10.6493C10.2438 10.5905 9.80763 10.5655 9.37169 10.5747V14.096C9.00168 13.9796 8.61581 13.9205 8.22766 13.9208C6.14566 13.9208 4.45816 15.5959 4.45816 17.6624C4.45816 19.1235 5.30163 20.3885 6.53182 21.0048Z" fill="#FF004F"/>
<path d="M16.4815 8.64456C18.233 9.88694 20.3778 10.6179 22.6945 10.6179V7.13461C21.4013 6.86117 20.2565 6.19045 19.3958 5.25746C17.9225 4.34486 16.861 2.83938 16.5498 1.0773H13.302V18.7523C13.2946 20.8129 11.6099 22.4813 9.53228 22.4813C8.30809 22.4813 7.22041 21.9021 6.53163 21.0047C5.30163 20.3885 4.45806 19.1234 4.45806 17.6625C4.45806 15.5962 6.14556 13.9209 8.22756 13.9209C8.62647 13.9209 9.01094 13.9826 9.37159 14.0961V10.5748C4.90047 10.6665 1.30469 14.2927 1.30469 18.7524C1.30469 20.9787 2.20009 22.9969 3.65341 24.4716C4.9645 25.3454 6.54278 25.8551 8.24097 25.8551C12.7921 25.8551 16.4816 22.1929 16.4816 17.6753L16.4815 8.64456Z" fill="black"/>
<path d="M22.6945 7.13452V6.19287C21.5284 6.19455 20.3853 5.8704 19.3958 5.25746C20.2717 6.20917 21.4249 6.86548 22.6945 7.1347M16.5497 1.07721C16.52 0.908836 16.4973 0.739342 16.4814 0.569141V0H11.997V17.6752C11.9899 19.7356 10.3052 21.404 8.2275 21.404C7.63849 21.4049 7.05754 21.2682 6.53156 21.0049C7.22034 21.9021 8.30803 22.4812 9.53222 22.4812C11.6097 22.4812 13.2946 20.813 13.3019 18.7524V1.0773L16.5497 1.07721ZM9.37181 10.5747V9.57206C8.99708 9.52125 8.6193 9.49581 8.24109 9.4959C3.68953 9.4959 0 13.158 0 17.6752C0 20.5073 1.45003 23.0033 3.65353 24.4714C2.20022 22.9968 1.30481 20.9785 1.30481 18.7523C1.30481 14.2927 4.9005 10.6664 9.37181 10.5747Z" fill="#00F2EA"/>
</g>
<defs>
<clipPath id="clip0_11_38">
<rect width="24" height="27" fill="white"/>
</clipPath>
</defs>
</svg>
