<svg width="36" height="31" viewBox="0 0 36 31" fill="none" xmlns="http://www.w3.org/2000/svg">
<path d="M29.4 27.125L19.95 18.9875C19.2 19.5042 18.3375 19.9132 17.3625 20.2146C16.3875 20.516 15.35 20.6667 14.25 20.6667C11.525 20.6667 9.219 19.8538 7.332 18.228C5.445 16.6022 4.501 14.6165 4.5 12.2708C4.499 9.92517 5.443 7.93944 7.332 6.31367C9.221 4.68789 11.527 3.875 14.25 3.875C16.973 3.875 19.2795 4.68789 21.1695 6.31367C23.0595 7.93944 24.003 9.92517 24 12.2708C24 13.2181 23.825 14.1115 23.475 14.951C23.125 15.7906 22.65 16.5333 22.05 17.1792L31.5 25.3167L29.4 27.125ZM14.25 18.0833C16.125 18.0833 17.719 17.5184 19.032 16.3887C20.345 15.2589 21.001 13.8863 21 12.2708C20.999 10.6554 20.343 9.28321 19.032 8.15429C17.721 7.02538 16.127 6.46006 14.25 6.45833C12.373 6.45661 10.7795 7.02193 9.4695 8.15429C8.1595 9.28665 7.503 10.6588 7.5 12.2708C7.497 13.8828 8.1535 15.2554 9.4695 16.3887C10.7855 17.5219 12.379 18.0868 14.25 18.0833Z" fill="#E6E6E6"/>
</svg>
