<svg width="38" height="38" viewBox="0 0 38 38" fill="none" xmlns="http://www.w3.org/2000/svg">
<path d="M19.0001 31.6667C22.3595 31.6667 25.5813 30.3321 27.9568 27.9567C30.3322 25.5812 31.6667 22.3594 31.6667 19C31.6667 15.6406 30.3322 12.4188 27.9568 10.0433C25.5813 7.66785 22.3595 6.33333 19.0001 6.33333C15.6407 6.33333 12.4189 7.66785 10.0434 10.0433C7.66793 12.4188 6.33341 15.6406 6.33341 19C6.33341 22.3594 7.66793 25.5812 10.0434 27.9567C12.4189 30.3321 15.6407 31.6667 19.0001 31.6667ZM19.0001 3.16667C21.0793 3.16667 23.1382 3.57621 25.0592 4.37191C26.9802 5.16761 28.7257 6.33388 30.1959 7.80414C31.6662 9.2744 32.8325 11.0199 33.6282 12.9408C34.4239 14.8618 34.8334 16.9207 34.8334 19C34.8334 23.1993 33.1653 27.2265 30.1959 30.1959C27.2266 33.1652 23.1993 34.8333 19.0001 34.8333C10.2442 34.8333 3.16675 27.7083 3.16675 19C3.16675 14.8007 4.8349 10.7735 7.80422 7.80414C10.7735 4.83482 14.8008 3.16667 19.0001 3.16667ZM19.7917 11.0833V19.3958L26.9167 23.6233L25.7292 25.5708L17.4167 20.5833V11.0833H19.7917Z" fill="#2C3E50"/>
</svg>
