<svg width="38" height="38" viewBox="0 0 38 38" fill="none" xmlns="http://www.w3.org/2000/svg">
<path d="M10.4184 3.16666C10.3075 7.30866 7.17252 10.4437 3.14136 10.4437V12.6825C8.62919 12.7949 12.882 8.5405 12.6572 3.16666H10.4184ZM3.14136 5.74116V7.98158C5.94069 7.86916 7.95469 5.85358 7.95469 3.16666H5.71902C5.61803 3.81347 5.31406 4.41144 4.85101 4.8742C4.38796 5.33696 3.78981 5.64057 3.14294 5.74116M34.8603 10.4437C30.8291 10.4437 27.6941 7.30866 27.5833 3.16666H25.3429C25.1196 8.5405 29.374 12.7949 34.8587 12.6825L34.8603 10.4437ZM34.8603 7.98158V5.74116C34.2131 5.64087 33.6146 5.33741 33.1513 4.87462C32.6879 4.41183 32.3837 3.8137 32.2826 3.16666H30.0438C30.0438 5.85358 32.0594 7.86916 34.8571 7.98M30.0834 31.6667V19H34.8334L19 4.75L3.16669 19H7.91669V31.6667H30.0834ZM19 9.025L26.9167 16.15V28.5H11.0834V16.15L19 9.025Z" fill="#2C3E50"/>
</svg>
