<svg width="44" height="42" viewBox="0 0 44 42" fill="none" xmlns="http://www.w3.org/2000/svg">
<path d="M22.0001 5.1413L3.66675 20.5652H9.16675V34.2754H34.8334V20.5652H40.3334L22.0001 5.1413ZM22.0001 14.567C26.2901 14.567 30.1767 16.1608 33.0001 18.7486L30.8001 20.7709C28.4534 18.6151 25.2902 17.4138 22.0001 17.429C18.5534 17.429 15.4367 18.6972 13.2001 20.7709L11.0001 18.7486C13.9371 16.0586 17.8883 14.5566 22.0001 14.567ZM22.0001 20.2739C24.5667 20.2739 26.8951 21.2336 28.6001 22.7931L26.4001 24.7982C25.2253 23.7235 23.6439 23.126 22.0001 23.1359C20.2767 23.1359 18.7184 23.77 17.6001 24.7982L15.4001 22.7931C17.1612 21.1763 19.5317 20.2715 22.0001 20.2739ZM22.0001 25.9979C23.7234 25.9979 25.1167 27.2661 25.1167 28.8427C25.1167 30.4194 23.7234 31.7047 22.0001 31.7047C20.2767 31.7047 18.8834 30.4194 18.8834 28.8427C18.8834 27.2661 20.2767 25.9979 22.0001 25.9979Z" fill="#2C3E50"/>
</svg>
